<svg xmlns="http://www.w3.org/2000/svg" xmlns:xlink="http://www.w3.org/1999/xlink" contentStyleType="text/css" data-diagram-type="SEQUENCE" height="789px" preserveAspectRatio="none" style="width:717px;height:789px;background:#FFFFFF;" version="1.1" viewBox="0 0 717 789" width="717px" zoomAndPan="magnify"><?plantuml 1.2026.6?><defs/><g><rect fill="none" height="59.0781" style="stroke:#000000;stroke-width:1.5;" width="350.6714" x="351.0322" y="433.6934"/><rect fill="none" height="182.9961" style="stroke:#000000;stroke-width:1.5;" width="619.1587" x="82.5449" y="506.7715"/><g class="participant-lifeline" data-entity-uid="part1" data-qualified-name="Client" data-source-line="15" id="part1-lifeline"><g><title>MCP client</title><rect fill="#000000" fill-opacity="0.00000" height="624.8281" width="8" x="39.7725" y="81.9395"/><line style="stroke:#666666;stroke-width:0.5;stroke-dasharray:5,5;" x1="43" x2="43" y1="81.9395" y2="706.7676"/></g></g><g class="participant-lifeline" data-entity-uid="part2" data-qualified-name="Tool" data-source-line="16" id="part2-lifeline"><g><title>PriorisMCP tool</title><rect fill="#000000" fill-opacity="0.00000" height="624.8281" width="8" x="217.7886" y="81.9395"/><line style="stroke:#666666;stroke-width:0.5;stroke-dasharray:5,5;" x1="221.5449" x2="221.5449" y1="81.9395" y2="706.7676"/></g></g><g class="participant-lifeline" data-entity-uid="part3" data-qualified-name="Queue" data-source-line="17" id="part3-lifeline"><g><title>Provider queue</title><rect fill="#000000" fill-opacity="0.00000" height="624.8281" width="8" x="445.3354" y="81.9395"/><line style="stroke:#666666;stroke-width:0.5;stroke-dasharray:5,5;" x1="449.0322" x2="449.0322" y1="81.9395" y2="706.7676"/></g></g><g class="participant-lifeline" data-entity-uid="part4" data-qualified-name="API" data-source-line="18" id="part4-lifeline"><g><title>arXiv . Europe PMC</title><rect fill="#000000" fill-opacity="0.00000" height="624.8281" width="8" x="619.8511" y="81.9395"/><line style="stroke:#666666;stroke-width:0.5;stroke-dasharray:5,5;" x1="622.9985" x2="622.9985" y1="81.9395" y2="706.7676"/></g></g><g class="participant participant-head" data-entity-uid="part1" data-qualified-name="Client" data-source-line="15" id="part1-head"><text fill="#000000" font-family="Inter, sans-serif" font-size="14" lengthAdjust="spacing" textLength="71.5449" x="5" y="78.5625">MCP client</text><ellipse cx="43.7725" cy="13.5" fill="#08427B" rx="8" ry="8" style="stroke:#073B6F;stroke-width:0.5;"/><path d="M43.7725,21.5 L43.7725,48.5 M30.7725,29.5 L56.7725,29.5 M43.7725,48.5 L30.7725,63.5 M43.7725,48.5 L56.7725,63.5" fill="none" style="stroke:#073B6F;stroke-width:0.5;"/></g><g class="participant participant-tail" data-entity-uid="part1" data-qualified-name="Client" data-source-line="15" id="part1-tail"><text fill="#000000" font-family="Inter, sans-serif" font-size="14" lengthAdjust="spacing" textLength="71.5449" x="5" y="719.3301">MCP client</text><ellipse cx="43.7725" cy="731.207" fill="#08427B" rx="8" ry="8" style="stroke:#073B6F;stroke-width:0.5;"/><path d="M43.7725,739.207 L43.7725,766.207 M30.7725,747.207 L56.7725,747.207 M43.7725,766.207 L30.7725,781.207 M43.7725,766.207 L56.7725,781.207" fill="none" style="stroke:#073B6F;stroke-width:0.5;"/></g><g class="participant participant-head" data-entity-uid="part2" data-qualified-name="Tool" data-source-line="16" id="part2-head"><rect fill="#E8F1FB" height="47.8789" rx="2.5" ry="2.5" style="stroke:#3C7FC0;stroke-width:0.5;" width="258.4873" x="92.5449" y="33.0605"/><text fill="#000000" font-family="Inter, sans-serif" font-size="14" lengthAdjust="spacing" textLength="102.5596" x="170.5088" y="53.623">PriorisMCP tool</text><text fill="#000000" font-family="Inter, sans-serif" font-size="14" lengthAdjust="spacing" textLength="244.4873" x="99.5449" y="70.5625">(e.g. research_arxiv_fetch_metadata)</text></g><g class="participant participant-tail" data-entity-uid="part2" data-qualified-name="Tool" data-source-line="16" id="part2-tail"><rect fill="#E8F1FB" height="47.8789" rx="2.5" ry="2.5" style="stroke:#3C7FC0;stroke-width:0.5;" width="258.4873" x="92.5449" y="705.7676"/><text fill="#000000" font-family="Inter, sans-serif" font-size="14" lengthAdjust="spacing" textLength="102.5596" x="170.5088" y="726.3301">PriorisMCP tool</text><text fill="#000000" font-family="Inter, sans-serif" font-size="14" lengthAdjust="spacing" textLength="244.4873" x="99.5449" y="743.2695">(e.g. research_arxiv_fetch_metadata)</text></g><g class="participant participant-head" data-entity-uid="part3" data-qualified-name="Queue" data-source-line="17" id="part3-head"><rect fill="#E8F1FB" height="47.8789" rx="2.5" ry="2.5" style="stroke:#3C7FC0;stroke-width:0.5;" width="176.6064" x="361.0322" y="33.0605"/><text fill="#000000" font-family="Inter, sans-serif" font-size="14" lengthAdjust="spacing" textLength="101.2607" x="398.7051" y="53.623">Provider queue</text><text fill="#000000" font-family="Inter, sans-serif" font-size="14" lengthAdjust="spacing" textLength="162.6064" x="368.0322" y="70.5625">(serialised, per provider)</text></g><g class="participant participant-tail" data-entity-uid="part3" data-qualified-name="Queue" data-source-line="17" id="part3-tail"><rect fill="#E8F1FB" height="47.8789" rx="2.5" ry="2.5" style="stroke:#3C7FC0;stroke-width:0.5;" width="176.6064" x="361.0322" y="705.7676"/><text fill="#000000" font-family="Inter, sans-serif" font-size="14" lengthAdjust="spacing" textLength="101.2607" x="398.7051" y="726.3301">Provider queue</text><text fill="#000000" font-family="Inter, sans-serif" font-size="14" lengthAdjust="spacing" textLength="162.6064" x="368.0322" y="743.2695">(serialised, per provider)</text></g><g class="participant participant-head" data-entity-uid="part4" data-qualified-name="API" data-source-line="18" id="part4-head"><text fill="#000000" font-family="Inter, sans-serif" font-size="14" lengthAdjust="spacing" textLength="129.7051" x="555.9985" y="78.5625">arXiv / Europe PMC</text><path d="M605.8511,29 C605.8511,19 623.8511,19 623.8511,19 C623.8511,19 641.8511,19 641.8511,29 L641.8511,55 C641.8511,65 623.8511,65 623.8511,65 C623.8511,65 605.8511,65 605.8511,55 L605.8511,29" fill="#E2E2F0" style="stroke:#181818;stroke-width:0.5;"/><path d="M605.8511,29 C605.8511,39 623.8511,39 623.8511,39 C623.8511,39 641.8511,39 641.8511,29" fill="none" style="stroke:#181818;stroke-width:0.5;"/></g><g class="participant participant-tail" data-entity-uid="part4" data-qualified-name="API" data-source-line="18" id="part4-tail"><text fill="#000000" font-family="Inter, sans-serif" font-size="14" lengthAdjust="spacing" textLength="129.7051" x="555.9985" y="719.3301">arXiv / Europe PMC</text><path d="M605.8511,732.707 C605.8511,722.707 623.8511,722.707 623.8511,722.707 C623.8511,722.707 641.8511,722.707 641.8511,732.707 L641.8511,758.707 C641.8511,768.707 623.8511,768.707 623.8511,768.707 C623.8511,768.707 605.8511,768.707 605.8511,758.707 L605.8511,732.707" fill="#E2E2F0" style="stroke:#181818;stroke-width:0.5;"/><path d="M605.8511,732.707 C605.8511,742.707 623.8511,742.707 623.8511,742.707 C623.8511,742.707 641.8511,742.707 641.8511,732.707" fill="none" style="stroke:#181818;stroke-width:0.5;"/></g><g class="message" data-entity-1="part1" data-entity-2="part2" data-source-line="20" id="msg1"><polygon fill="#666666" points="209.7886,109.6689,219.7886,113.6689,209.7886,117.6689,213.7886,113.6689" style="stroke:#666666;stroke-width:1;stroke-linejoin:miter;stroke-miterlimit:10;"/><line style="stroke:#666666;stroke-width:1;" x1="43.7725" x2="215.7886" y1="113.6689" y2="113.6689"/><text fill="#000000" font-family="Inter, sans-serif" font-size="13" lengthAdjust="spacing" textLength="33.6489" x="50.7725" y="108.5332">call A</text></g><g class="message" data-entity-1="part1" data-entity-2="part2" data-source-line="21" id="msg2"><polygon fill="#666666" points="209.7886,139.3984,219.7886,143.3984,209.7886,147.3984,213.7886,143.3984" style="stroke:#666666;stroke-width:1;stroke-linejoin:miter;stroke-miterlimit:10;"/><line style="stroke:#666666;stroke-width:1;" x1="43.7725" x2="215.7886" y1="143.3984" y2="143.3984"/><text fill="#000000" font-family="Inter, sans-serif" font-size="13" lengthAdjust="spacing" textLength="113.6421" x="50.7725" y="138.2627">call B (concurrent)</text></g><g class="message" data-entity-1="part2" data-entity-2="part3" data-source-line="22" id="msg3"><polygon fill="#666666" points="437.3354,169.1279,447.3354,173.1279,437.3354,177.1279,441.3354,173.1279" style="stroke:#666666;stroke-width:1;stroke-linejoin:miter;stroke-miterlimit:10;"/><line style="stroke:#666666;stroke-width:1;" x1="221.7886" x2="443.3354" y1="173.1279" y2="173.1279"/><text fill="#000000" font-family="Inter, sans-serif" font-size="13" lengthAdjust="spacing" textLength="66.3774" x="228.7886" y="167.9922">enqueue A</text></g><g class="message" data-entity-1="part2" data-entity-2="part3" data-source-line="23" id="msg4"><polygon fill="#666666" points="437.3354,198.8574,447.3354,202.8574,437.3354,206.8574,441.3354,202.8574" style="stroke:#666666;stroke-width:1;stroke-linejoin:miter;stroke-miterlimit:10;"/><line style="stroke:#666666;stroke-width:1;" x1="221.7886" x2="443.3354" y1="202.8574" y2="202.8574"/><text fill="#000000" font-family="Inter, sans-serif" font-size="13" lengthAdjust="spacing" textLength="65.9141" x="228.7886" y="197.7217">enqueue B</text></g><g class="message" data-entity-1="part3" data-entity-2="part4" data-source-line="25" id="msg5"><polygon fill="#666666" points="611.8511,228.5869,621.8511,232.5869,611.8511,236.5869,615.8511,232.5869" style="stroke:#666666;stroke-width:1;stroke-linejoin:miter;stroke-miterlimit:10;"/><line style="stroke:#666666;stroke-width:1;" x1="449.3354" x2="617.8511" y1="232.5869" y2="232.5869"/><text fill="#000000" font-family="Inter, sans-serif" font-size="13" lengthAdjust="spacing" textLength="59.4395" x="456.3354" y="227.4512">request A</text></g><g class="message" data-entity-1="part4" data-entity-2="part3" data-source-line="26" id="msg6"><polygon fill="#666666" points="460.3354,258.3164,450.3354,262.3164,460.3354,266.3164,456.3354,262.3164" style="stroke:#666666;stroke-width:1;stroke-linejoin:miter;stroke-miterlimit:10;"/><line style="stroke:#666666;stroke-width:1;stroke-dasharray:2,2;" x1="454.3354" x2="622.8511" y1="262.3164" y2="262.3164"/><text fill="#000000" font-family="Inter, sans-serif" font-size="13" lengthAdjust="spacing" textLength="46.6616" x="466.3354" y="257.1807">200 OK</text></g><g class="message" data-entity-1="part3" data-entity-2="part2" data-source-line="27" id="msg7"><polygon fill="#666666" points="232.7886,288.0459,222.7886,292.0459,232.7886,296.0459,228.7886,292.0459" style="stroke:#666666;stroke-width:1;stroke-linejoin:miter;stroke-miterlimit:10;"/><line style="stroke:#666666;stroke-width:1;stroke-dasharray:2,2;" x1="226.7886" x2="448.3354" y1="292.0459" y2="292.0459"/><text fill="#000000" font-family="Inter, sans-serif" font-size="13" lengthAdjust="spacing" textLength="47.0488" x="238.7886" y="286.9102">result A</text></g><path d="M373,305.0459 L373,362.0459 L698,362.0459 L698,315.0459 L688,305.0459 L373,305.0459" fill="#FEFFDD" style="stroke:#181818;stroke-width:0.5;"/><path d="M688,305.0459 L688,315.0459 L698,315.0459 L688,305.0459" fill="#FEFFDD" style="stroke:#181818;stroke-width:0.5;"/><text fill="#000000" font-family="Inter, sans-serif" font-size="13" lengthAdjust="spacing" textLength="228.9727" x="416.8494" y="322.6396">Never two requests in flight at once -</text><text fill="#000000" font-family="Inter, sans-serif" font-size="13" lengthAdjust="spacing" textLength="218.5498" x="416.8494" y="338.3691">call B waits for its own turn, spaced</text><text fill="#000000" font-family="Inter, sans-serif" font-size="13" lengthAdjust="spacing" textLength="209.7075" x="416.8494" y="354.0986">by the provider's rate limit (&gt;= 3s)</text><g class="message" data-entity-1="part3" data-entity-2="part4" data-source-line="35" id="msg8"><polygon fill="#666666" points="611.8511,384.9639,621.8511,388.9639,611.8511,392.9639,615.8511,388.9639" style="stroke:#666666;stroke-width:1;stroke-linejoin:miter;stroke-miterlimit:10;"/><line style="stroke:#666666;stroke-width:1;" x1="449.3354" x2="617.8511" y1="388.9639" y2="388.9639"/><text fill="#000000" font-family="Inter, sans-serif" font-size="13" lengthAdjust="spacing" textLength="58.9761" x="456.3354" y="383.8281">request B</text></g><g class="message" data-entity-1="part4" data-entity-2="part3" data-source-line="36" id="msg9"><polygon fill="#666666" points="460.3354,414.6934,450.3354,418.6934,460.3354,422.6934,456.3354,418.6934" style="stroke:#666666;stroke-width:1;stroke-linejoin:miter;stroke-miterlimit:10;"/><line style="stroke:#666666;stroke-width:1;stroke-dasharray:2,2;" x1="454.3354" x2="622.8511" y1="418.6934" y2="418.6934"/><text fill="#000000" font-family="Inter, sans-serif" font-size="13" lengthAdjust="spacing" textLength="150.5156" x="466.3354" y="413.5576">429 Too Many Requests</text></g><path d="M351.0322,433.6934 L423.6953,433.6934 L423.6953,441.4229 L413.6953,451.4229 L351.0322,451.4229 L351.0322,433.6934" fill="#EEEEEE" style="stroke:#000000;stroke-width:1.5;"/><rect fill="none" height="59.0781" style="stroke:#000000;stroke-width:1.5;" width="350.6714" x="351.0322" y="433.6934"/><text fill="#000000" font-family="Inter, sans-serif" font-size="13" font-weight="700" lengthAdjust="spacing" textLength="27.6631" x="366.0322" y="447.2871">loop</text><text fill="#000000" font-family="Inter, sans-serif" font-size="11" font-weight="700" lengthAdjust="spacing" textLength="229.6035" x="438.6953" y="446.3496">[adaptive backoff: 3s, 6s, 12s, 24s, 48s, ...</text><text fill="#000000" font-family="Inter, sans-serif" font-size="11" font-weight="700" lengthAdjust="spacing" textLength="212.5718" x="438.6953" y="459.6592">until success or 60s budget exhausted]</text><g class="message" data-entity-1="part3" data-entity-2="part4" data-source-line="39" id="msg10"><polygon fill="#666666" points="611.8511,480.7715,621.8511,484.7715,611.8511,488.7715,615.8511,484.7715" style="stroke:#666666;stroke-width:1;stroke-linejoin:miter;stroke-miterlimit:10;"/><line style="stroke:#666666;stroke-width:1;" x1="449.3354" x2="617.8511" y1="484.7715" y2="484.7715"/><text fill="#000000" font-family="Inter, sans-serif" font-size="13" lengthAdjust="spacing" textLength="41.0884" x="456.3354" y="479.6357">retry B</text></g><path d="M82.5449,506.7715 L143.376,506.7715 L143.376,514.501 L133.376,524.501 L82.5449,524.501 L82.5449,506.7715" fill="#EEEEEE" style="stroke:#000000;stroke-width:1.5;"/><rect fill="none" height="182.9961" style="stroke:#000000;stroke-width:1.5;" width="619.1587" x="82.5449" y="506.7715"/><text fill="#000000" font-family="Inter, sans-serif" font-size="13" font-weight="700" lengthAdjust="spacing" textLength="15.8311" x="97.5449" y="520.3652">alt</text><text fill="#000000" font-family="Inter, sans-serif" font-size="11" font-weight="700" lengthAdjust="spacing" textLength="165.709" x="158.376" y="519.4277">[retry succeeds within budget]</text><g class="message" data-entity-1="part4" data-entity-2="part3" data-source-line="43" id="msg11"><polygon fill="#666666" points="460.3354,542.2305,450.3354,546.2305,460.3354,550.2305,456.3354,546.2305" style="stroke:#666666;stroke-width:1;stroke-linejoin:miter;stroke-miterlimit:10;"/><line style="stroke:#666666;stroke-width:1;stroke-dasharray:2,2;" x1="454.3354" x2="622.8511" y1="546.2305" y2="546.2305"/><text fill="#000000" font-family="Inter, sans-serif" font-size="13" lengthAdjust="spacing" textLength="46.6616" x="466.3354" y="541.0947">200 OK</text></g><g class="message" data-entity-1="part3" data-entity-2="part2" data-source-line="44" id="msg12"><polygon fill="#666666" points="232.7886,571.96,222.7886,575.96,232.7886,579.96,228.7886,575.96" style="stroke:#666666;stroke-width:1;stroke-linejoin:miter;stroke-miterlimit:10;"/><line style="stroke:#666666;stroke-width:1;stroke-dasharray:2,2;" x1="226.7886" x2="448.3354" y1="575.96" y2="575.96"/><text fill="#000000" font-family="Inter, sans-serif" font-size="13" lengthAdjust="spacing" textLength="46.5854" x="238.7886" y="570.8242">result B</text></g><line style="stroke:#000000;stroke-width:1;stroke-dasharray:2,2;" x1="82.5449" x2="701.7036" y1="584.96" y2="584.96"/><text fill="#000000" font-family="Inter, sans-serif" font-size="11" font-weight="700" lengthAdjust="spacing" textLength="105.8374" x="87.5449" y="595.6162">[budget exhausted]</text><g class="message" data-entity-1="part3" data-entity-2="part2" data-source-line="46" id="msg13"><polygon fill="#666666" points="232.7886,616.999,222.7886,620.999,232.7886,624.999,228.7886,620.999" style="stroke:#666666;stroke-width:1;stroke-linejoin:miter;stroke-miterlimit:10;"/><line style="stroke:#666666;stroke-width:1;stroke-dasharray:2,2;" x1="226.7886" x2="448.3354" y1="620.999" y2="620.999"/><text fill="#000000" font-family="Inter, sans-serif" font-size="13" lengthAdjust="spacing" textLength="104.292" x="238.7886" y="615.8633">rate_limited error</text></g><line style="stroke:#000000;stroke-width:1;stroke-dasharray:2,2;" x1="82.5449" x2="701.7036" y1="629.999" y2="629.999"/><text fill="#000000" font-family="Inter, sans-serif" font-size="11" font-weight="700" lengthAdjust="spacing" textLength="273.1738" x="87.5449" y="640.6553">[non-429 failure (timeout / connection error / 5xx)]</text><g class="message" data-entity-1="part3" data-entity-2="part2" data-source-line="48" id="msg14"><polygon fill="#666666" points="232.7886,677.7676,222.7886,681.7676,232.7886,685.7676,228.7886,681.7676" style="stroke:#666666;stroke-width:1;stroke-linejoin:miter;stroke-miterlimit:10;"/><line style="stroke:#666666;stroke-width:1;stroke-dasharray:2,2;" x1="226.7886" x2="448.3354" y1="681.7676" y2="681.7676"/><text fill="#000000" font-family="Inter, sans-serif" font-size="13" lengthAdjust="spacing" textLength="160.7354" x="238.7886" y="660.9023">provider_unavailable error</text><text fill="#000000" font-family="Inter, sans-serif" font-size="13" lengthAdjust="spacing" textLength="197.3169" x="238.7886" y="676.6318">(surfaced immediately, no retry)</text></g><?plantuml-src VLJRRjf047tVhnYHXu84b11AIAH6mZH8KIwbLQNs8H9Qx36iikowU-6Ygl_UsJL9d3Yf4SRCd3bpvhAs3q8LtF0rP9XpBzrKAtV7rmYDA-NGD9XzGYnu-h0qsgjiegKsi5q9XnM_nTyULOhmXm5TOsFqjaGU3UCLpJSYnnkXCD4cGrFtpxXn8XK5LovvbV3eSZGzdYOrM9NfP78wdVHA0QdJfiRH6mtwfqa5K8tkdPuamsbqVk6EBxZ56i5Pl5vYgXoZSVYyy8UcbjwViMT_6UCXDpHk9pD8fK3b6i0jJE8ZAvwBWyRC26s43KYdjRnNJUmkks3G8ZVfQixDJcpcEJfwNgFZ6ILjHROV17_DfJU2f09DoYDHMJI2Is4nQqD1zk80A0c-1HJB3bL0WvjVOWCVuT8RNI3CRYSHDfvTCLPAXyv5J0lda78fOVoEFO5cgbNgZI5dYqKNGM92mg2A0YdyFK_2M6aY7-KdZmdhPnt5XF-TIao_ruElru_uPoNKGjfu2c1AEmIzeGP4K3kM52PuXy7ejlgHte9Ga4knN3dW3dJOzqw47khQSa6Wd8ORVlLMWVD6jS4MFCKi8XTxS2jywlK72uPJVYdMma7puZESs1P3bK6GzMwTIQtEGVyib0QtNEtX-q4lOrBh0cWj2YSs64-nplDpIjA68NsF-tJh3-Ws6D6js-tUAw-Sa61zcgAb8WmCUnOMFbkY0zojkBVkK4jDd3DxaaRgQSUfkQKXCc5cOIlSYXfOKfM7yErXLRXh0oDwIUluFpsL66hjFBOMCq1w9vaoMcdL2GtBkP3U83ITMAFsZjQRDbDXweHMPG2PFkrshRVv7wSuzuflY8il99PXuNXvauUnWrYlCHCaHUxRbBfiInmo-mS0?></g></svg>
